<svg xmlns="http://www.w3.org/2000/svg" xmlns:xlink="http://www.w3.org/1999/xlink" width="500" zoomAndPan="magnify" viewBox="0 0 375 374.999991" height="500" preserveAspectRatio="xMidYMid meet" version="1.0"><defs><g/><clipPath id="7102d8bb46"><path d="M 74.605469 22.289062 L 314.617188 22.289062 L 314.617188 270.878906 L 74.605469 270.878906 Z M 74.605469 22.289062 " clip-rule="nonzero"/></clipPath><clipPath id="cd066923a1"><path d="M 43.253906 9.304688 L 310.527344 9.304688 L 310.527344 285.304688 L 43.253906 285.304688 Z M 43.253906 9.304688 " clip-rule="nonzero"/></clipPath><clipPath id="fc86833f2f"><path d="M 191.84375 144.296875 L 284 144.296875 L 284 203.226562 L 191.84375 203.226562 Z M 191.84375 144.296875 " clip-rule="nonzero"/></clipPath><clipPath id="f29528a841"><path d="M 202.734375 177.457031 L 288.339844 177.457031 L 288.339844 198.589844 L 202.734375 198.589844 Z M 202.734375 177.457031 " clip-rule="nonzero"/></clipPath><clipPath id="7b06a342c3"><path d="M 100.648438 142.019531 L 192 142.019531 L 192 203.226562 L 100.648438 203.226562 Z M 100.648438 142.019531 " clip-rule="nonzero"/></clipPath><clipPath id="ff2782ac64"><path d="M 95.589844 174 L 182 174 L 182 199 L 95.589844 199 Z M 95.589844 174 " clip-rule="nonzero"/></clipPath><clipPath id="15df6a4553"><path d="M 224 91.625 L 232 91.625 L 232 98 L 224 98 Z M 224 91.625 " clip-rule="nonzero"/></clipPath></defs><path fill="#e71f69" d="M 194.847656 252.59375 C 136.929688 252.59375 89.976562 205.640625 89.976562 147.722656 C 89.976562 89.804688 136.929688 42.851562 194.847656 42.851562 C 238.5 42.851562 275.917969 69.523438 291.703125 107.457031 C 275.925781 62.519531 233.128906 30.296875 182.800781 30.296875 C 119.066406 30.296875 67.398438 81.964844 67.398438 145.699219 C 67.398438 209.433594 119.066406 261.097656 182.800781 261.097656 C 219.457031 261.097656 252.121094 244.003906 273.257812 217.355469 C 254.050781 238.96875 226.042969 252.59375 194.847656 252.59375 " fill-opacity="1" fill-rule="nonzero"/><g clip-path="url(#7102d8bb46)"><path fill="#00adef" d="M 195.816406 29.957031 C 259.667969 37.648438 305.195312 95.644531 297.507812 159.496094 C 289.816406 223.347656 231.820312 268.875 167.964844 261.1875 C 125.160156 256.03125 90.59375 228.265625 74.773438 191.285156 C 90.789062 232.6875 128.550781 264.113281 175.699219 269.789062 C 243.730469 277.984375 305.519531 229.476562 313.714844 161.449219 C 321.90625 93.417969 273.398438 31.628906 205.371094 23.433594 C 158.222656 17.757812 114.078125 39.316406 88.6875 75.730469 C 112.839844 43.566406 153.011719 24.800781 195.816406 29.957031 " fill-opacity="1" fill-rule="nonzero"/></g><g clip-path="url(#cd066923a1)"><path fill="#00adef" d="M 175.5 17.570312 C 104.421875 26.132812 53.738281 90.691406 62.300781 161.769531 C 70.859375 232.847656 135.417969 283.53125 206.5 274.96875 C 254.148438 269.230469 292.628906 238.324219 310.242188 197.160156 C 292.410156 243.246094 250.375 278.226562 197.890625 284.546875 C 122.160156 293.667969 53.378906 239.671875 44.257812 163.945312 C 35.136719 88.214844 89.132812 19.429688 164.863281 10.3125 C 217.34375 3.988281 266.488281 27.992188 294.75 68.527344 C 267.867188 32.71875 223.148438 11.832031 175.5 17.570312 " fill-opacity="1" fill-rule="nonzero"/></g><g clip-path="url(#fc86833f2f)"><path fill="#36a5dd" d="M 256.117188 144.382812 L 283.992188 173.640625 C 221.953125 173.769531 191.851562 203.226562 191.851562 203.226562 C 191.851562 203.226562 207.070312 154.964844 256.117188 144.382812 " fill-opacity="1" fill-rule="nonzero"/></g><g clip-path="url(#f29528a841)"><path fill="#00609e" d="M 288.390625 196.488281 C 247.554688 186.539062 217.738281 193.164062 202.753906 198.472656 C 214.945312 190.757812 237.371094 180.03125 270.382812 177.589844 L 288.390625 196.488281 " fill-opacity="1" fill-rule="nonzero"/></g><g clip-path="url(#7b06a342c3)"><path fill="#36a5dd" d="M 129.691406 142.15625 L 100.808594 170.417969 C 162.800781 172.726562 191.851562 203.226562 191.851562 203.226562 C 191.851562 203.226562 178.335938 154.457031 129.691406 142.15625 " fill-opacity="1" fill-rule="nonzero"/></g><g clip-path="url(#ff2782ac64)"><path fill="#00609e" d="M 95.609375 193.097656 C 136.769531 184.59375 166.332031 192.261719 181.121094 198.089844 C 169.210938 189.953125 147.175781 178.445312 114.265625 174.839844 L 95.609375 193.097656 " fill-opacity="1" fill-rule="nonzero"/></g><path fill="#ff0568" d="M 262.617188 127.382812 L 258.617188 137.847656 C 232.722656 143.089844 215.800781 159.449219 206.148438 172.269531 C 214.308594 157.425781 231.464844 134.761719 262.617188 127.382812 " fill-opacity="1" fill-rule="nonzero"/><path fill="#ff0568" d="M 122.140625 124.507812 L 125.792969 135.167969 C 152.425781 140.976562 169.261719 158.359375 178.648438 171.785156 C 170.882812 156.394531 154.089844 132.585938 122.140625 124.507812 " fill-opacity="1" fill-rule="nonzero"/><path fill="#00609e" d="M 192.578125 161.785156 C 192.578125 161.785156 178.097656 136.058594 158.050781 129.925781 C 158.050781 129.925781 187.042969 154.914062 191.902344 200.359375 C 198.355469 155.113281 228.210938 131.160156 228.210938 131.160156 C 207.957031 136.582031 192.578125 161.785156 192.578125 161.785156 " fill-opacity="1" fill-rule="nonzero"/><path fill="#00609e" d="M 202.429688 137.285156 C 202.527344 131.542969 198.394531 126.808594 193.195312 126.71875 C 187.996094 126.628906 183.699219 131.210938 183.597656 136.953125 C 183.496094 142.699219 187.632812 147.429688 192.832031 147.523438 C 198.03125 147.613281 202.328125 143.03125 202.429688 137.285156 " fill-opacity="1" fill-rule="nonzero"/><path fill="#36a5dd" d="M 205.515625 102.863281 L 188.496094 102.566406 L 188.199219 119.582031 L 205.214844 119.882812 L 205.515625 102.863281 " fill-opacity="1" fill-rule="nonzero"/><path fill="#36a5dd" d="M 214.171875 94.503906 L 205.664062 94.355469 L 205.515625 102.863281 L 214.023438 103.015625 L 214.171875 94.503906 " fill-opacity="1" fill-rule="nonzero"/><path fill="#00609e" d="M 230.976562 114.996094 L 222.464844 114.84375 L 222.316406 123.355469 L 230.824219 123.503906 L 230.976562 114.996094 " fill-opacity="1" fill-rule="nonzero"/><path fill="#ff0568" d="M 215.917969 111.558594 L 211.828125 111.488281 L 211.757812 115.578125 L 215.847656 115.648438 L 215.917969 111.558594 " fill-opacity="1" fill-rule="nonzero"/><path fill="#ff0568" d="M 255.996094 104.96875 L 248.148438 104.832031 L 248.007812 112.683594 L 255.859375 112.820312 L 255.996094 104.96875 " fill-opacity="1" fill-rule="nonzero"/><path fill="#f8b31a" d="M 241.117188 122.914062 L 237.027344 122.84375 L 236.957031 126.933594 L 241.046875 127.003906 L 241.117188 122.914062 " fill-opacity="1" fill-rule="nonzero"/><g clip-path="url(#15df6a4553)"><path fill="#ff0568" d="M 231.050781 91.734375 L 224.917969 91.628906 L 224.8125 97.757812 L 230.945312 97.867188 L 231.050781 91.734375 " fill-opacity="1" fill-rule="nonzero"/></g><path fill="#f8b31a" d="M 238.355469 100.34375 L 232.160156 100.234375 L 232.050781 106.429688 L 238.246094 106.539062 L 238.355469 100.34375 " fill-opacity="1" fill-rule="nonzero"/><g fill="#00609e" fill-opacity="1"><g transform="translate(112.453044, 325.491137)"><g><path d="M 13.25 -23.0625 C 16.601562 -23.0625 19.257812 -22.222656 21.21875 -20.546875 C 23.175781 -18.867188 24.15625 -16.46875 24.15625 -13.34375 L 17.203125 -13.34375 C 17.203125 -14.664062 16.851562 -15.707031 16.15625 -16.46875 C 15.46875 -17.238281 14.488281 -17.625 13.21875 -17.625 C 11.738281 -17.625 10.65625 -17.160156 9.96875 -16.234375 C 9.28125 -15.316406 8.9375 -14.035156 8.9375 -12.390625 L 8.9375 -10.28125 C 8.9375 -8.65625 9.28125 -7.375 9.96875 -6.4375 C 10.65625 -5.507812 11.710938 -5.046875 13.140625 -5.046875 C 14.546875 -5.046875 15.613281 -5.40625 16.34375 -6.125 C 17.070312 -6.851562 17.4375 -7.875 17.4375 -9.1875 L 24.15625 -9.1875 C 24.15625 -6.09375 23.203125 -3.722656 21.296875 -2.078125 C 19.398438 -0.429688 16.71875 0.390625 13.25 0.390625 C 9.382812 0.390625 6.457031 -0.59375 4.46875 -2.5625 C 2.476562 -4.539062 1.484375 -7.460938 1.484375 -11.328125 C 1.484375 -15.203125 2.476562 -18.125 4.46875 -20.09375 C 6.457031 -22.070312 9.382812 -23.0625 13.25 -23.0625 Z M 13.25 -23.0625 "/></g></g></g><g fill="#00609e" fill-opacity="1"><g transform="translate(138.087624, 325.491137)"><g><path d="M 2.4375 -22.671875 L 22.046875 -22.671875 L 22.046875 -17.234375 L 9.71875 -17.234375 L 9.71875 -14.109375 L 20.265625 -14.109375 L 20.265625 -8.890625 L 9.71875 -8.890625 L 9.71875 -5.4375 L 22.28125 -5.4375 L 22.28125 0 L 2.4375 0 Z M 2.4375 -22.671875 "/></g></g></g><g fill="#00609e" fill-opacity="1"><g transform="translate(161.877043, 325.491137)"><g><path d="M 18.65625 0 L 9.125 -11 L 9.125 0 L 2.4375 0 L 2.4375 -22.671875 L 8.796875 -22.671875 L 18.328125 -11.5 L 18.328125 -22.671875 L 25.015625 -22.671875 L 25.015625 0 Z M 18.65625 0 "/></g></g></g><g fill="#00609e" fill-opacity="1"><g transform="translate(189.323824, 325.491137)"><g><path d="M 15.484375 -16.875 L 15.484375 0 L 8.203125 0 L 8.203125 -16.875 L 0.765625 -16.875 L 0.765625 -22.671875 L 22.90625 -22.671875 L 22.90625 -16.875 Z M 15.484375 -16.875 "/></g></g></g><g fill="#00609e" fill-opacity="1"><g transform="translate(213.113243, 325.491137)"><g><path d="M 23.953125 -15.71875 C 23.953125 -14.332031 23.578125 -13.078125 22.828125 -11.953125 C 22.085938 -10.835938 21.003906 -10.015625 19.578125 -9.484375 L 24.609375 0 L 16.4375 0 L 12.421875 -8.265625 L 9.71875 -8.265625 L 9.71875 0 L 2.4375 0 L 2.4375 -22.671875 L 16.3125 -22.671875 C 17.9375 -22.671875 19.320312 -22.359375 20.46875 -21.734375 C 21.625 -21.109375 22.492188 -20.257812 23.078125 -19.1875 C 23.660156 -18.125 23.953125 -16.96875 23.953125 -15.71875 Z M 16.546875 -15.421875 C 16.546875 -16.015625 16.347656 -16.507812 15.953125 -16.90625 C 15.554688 -17.300781 15.070312 -17.5 14.5 -17.5 L 9.71875 -17.5 L 9.71875 -13.3125 L 14.5 -13.3125 C 15.070312 -13.3125 15.554688 -13.515625 15.953125 -13.921875 C 16.347656 -14.328125 16.546875 -14.828125 16.546875 -15.421875 Z M 16.546875 -15.421875 "/></g></g></g><g fill="#00609e" fill-opacity="1"><g transform="translate(238.747823, 325.491137)"><g><path d="M 2.4375 -22.671875 L 22.046875 -22.671875 L 22.046875 -17.234375 L 9.71875 -17.234375 L 9.71875 -14.109375 L 20.265625 -14.109375 L 20.265625 -8.890625 L 9.71875 -8.890625 L 9.71875 -5.4375 L 22.28125 -5.4375 L 22.28125 0 L 2.4375 0 Z M 2.4375 -22.671875 "/></g></g></g><g fill="#00609e" fill-opacity="1"><g transform="translate(57.531766, 356.549605)"><g><path d="M 17.625 0 L 16.671875 -3.203125 L 8.734375 -3.203125 L 7.78125 0 L 0.328125 0 L 8.59375 -22.671875 L 17.0625 -22.671875 L 25.34375 0 Z M 10.25 -8.265625 L 15.15625 -8.265625 L 12.78125 -16.34375 L 12.65625 -16.34375 Z M 10.25 -8.265625 "/></g></g></g><g fill="#00609e" fill-opacity="1"><g transform="translate(83.166347, 356.549605)"><g><path d="M 15.484375 -16.875 L 15.484375 0 L 8.203125 0 L 8.203125 -16.875 L 0.765625 -16.875 L 0.765625 -22.671875 L 22.90625 -22.671875 L 22.90625 -16.875 Z M 15.484375 -16.875 "/></g></g></g><g fill="#00609e" fill-opacity="1"><g transform="translate(106.955765, 356.549605)"><g><path d="M 15.484375 -16.875 L 15.484375 0 L 8.203125 0 L 8.203125 -16.875 L 0.765625 -16.875 L 0.765625 -22.671875 L 22.90625 -22.671875 L 22.90625 -16.875 Z M 15.484375 -16.875 "/></g></g></g><g fill="#00609e" fill-opacity="1"><g transform="translate(130.745184, 356.549605)"><g><path d="M 17.625 0 L 16.671875 -3.203125 L 8.734375 -3.203125 L 7.78125 0 L 0.328125 0 L 8.59375 -22.671875 L 17.0625 -22.671875 L 25.34375 0 Z M 10.25 -8.265625 L 15.15625 -8.265625 L 12.78125 -16.34375 L 12.65625 -16.34375 Z M 10.25 -8.265625 "/></g></g></g><g fill="#00609e" fill-opacity="1"><g transform="translate(156.379765, 356.549605)"><g><path d="M 21.90625 0 L 21.90625 -8.171875 C 21.90625 -9.179688 21.941406 -10.21875 22.015625 -11.28125 C 22.097656 -12.351562 22.179688 -13.25 22.265625 -13.96875 C 22.359375 -14.695312 22.414062 -15.160156 22.4375 -15.359375 L 22.3125 -15.359375 L 18.125 0 L 12.421875 0 L 8.203125 -15.328125 L 8.078125 -15.328125 C 8.097656 -15.128906 8.15625 -14.671875 8.25 -13.953125 C 8.351562 -13.242188 8.445312 -12.351562 8.53125 -11.28125 C 8.625 -10.21875 8.671875 -9.179688 8.671875 -8.171875 L 8.671875 0 L 1.984375 0 L 1.984375 -22.671875 L 12.265625 -22.671875 L 15.6875 -9.59375 L 15.8125 -9.59375 L 19.21875 -22.671875 L 29.125 -22.671875 L 29.125 0 Z M 21.90625 0 "/></g></g></g><g fill="#00609e" fill-opacity="1"><g transform="translate(187.483925, 356.549605)"><g><path d="M 17.625 0 L 16.671875 -3.203125 L 8.734375 -3.203125 L 7.78125 0 L 0.328125 0 L 8.59375 -22.671875 L 17.0625 -22.671875 L 25.34375 0 Z M 10.25 -8.265625 L 15.15625 -8.265625 L 12.78125 -16.34375 L 12.65625 -16.34375 Z M 10.25 -8.265625 "/></g></g></g><g fill="#00609e" fill-opacity="1"><g transform="translate(213.118505, 356.549605)"><g><path d="M 16.515625 0 L 9.234375 0 L 9.234375 -8.796875 L 0.234375 -22.671875 L 8.59375 -22.671875 L 12.953125 -15.125 L 13.078125 -15.125 L 17.4375 -22.671875 L 25.375 -22.671875 L 16.515625 -8.796875 Z M 16.515625 0 "/></g></g></g><g fill="#00609e" fill-opacity="1"><g transform="translate(238.753086, 356.549605)"><g><path d="M 13.703125 -23.0625 C 17.617188 -23.0625 20.640625 -22.0625 22.765625 -20.0625 C 24.898438 -18.0625 25.96875 -15.148438 25.96875 -11.328125 C 25.96875 -7.515625 24.898438 -4.609375 22.765625 -2.609375 C 20.640625 -0.609375 17.617188 0.390625 13.703125 0.390625 C 9.796875 0.390625 6.78125 -0.597656 4.65625 -2.578125 C 2.539062 -4.566406 1.484375 -7.484375 1.484375 -11.328125 C 1.484375 -15.179688 2.539062 -18.097656 4.65625 -20.078125 C 6.78125 -22.066406 9.796875 -23.0625 13.703125 -23.0625 Z M 13.703125 -17.625 C 12.148438 -17.625 10.96875 -17.148438 10.15625 -16.203125 C 9.34375 -15.265625 8.9375 -13.992188 8.9375 -12.390625 L 8.9375 -10.28125 C 8.9375 -8.675781 9.34375 -7.398438 10.15625 -6.453125 C 10.96875 -5.515625 12.148438 -5.046875 13.703125 -5.046875 C 15.265625 -5.046875 16.457031 -5.515625 17.28125 -6.453125 C 18.101562 -7.398438 18.515625 -8.675781 18.515625 -10.28125 L 18.515625 -12.390625 C 18.515625 -13.992188 18.101562 -15.265625 17.28125 -16.203125 C 16.457031 -17.148438 15.265625 -17.625 13.703125 -17.625 Z M 13.703125 -17.625 "/></g></g></g><g fill="#00609e" fill-opacity="1"><g transform="translate(266.199867, 356.549605)"><g><path d="M 25.015625 -9.125 C 25.015625 -6.03125 24.035156 -3.671875 22.078125 -2.046875 C 20.117188 -0.421875 17.335938 0.390625 13.734375 0.390625 C 10.140625 0.390625 7.359375 -0.421875 5.390625 -2.046875 C 3.421875 -3.671875 2.4375 -6.03125 2.4375 -9.125 L 2.4375 -22.671875 L 9.71875 -22.671875 L 9.71875 -9.234375 C 9.71875 -7.953125 10.054688 -6.929688 10.734375 -6.171875 C 11.421875 -5.421875 12.410156 -5.046875 13.703125 -5.046875 C 15.003906 -5.046875 16 -5.425781 16.6875 -6.1875 C 17.382812 -6.957031 17.734375 -7.972656 17.734375 -9.234375 L 17.734375 -22.671875 L 25.015625 -22.671875 Z M 25.015625 -9.125 "/></g></g></g><g fill="#00609e" fill-opacity="1"><g transform="translate(293.646648, 356.549605)"><g><path d="M 12 -5.4375 L 22.765625 -5.4375 L 22.765625 0 L 0.796875 0 L 0.796875 -2.34375 L 11.296875 -17.234375 L 1.578125 -17.234375 L 1.578125 -22.671875 L 22.5 -22.671875 L 22.5 -20.328125 Z M 12 -5.4375 "/></g></g></g></svg>