<svg xmlns="http://www.w3.org/2000/svg" xmlns:xlink="http://www.w3.org/1999/xlink" width="500" zoomAndPan="magnify" viewBox="0 0 375 374.999991" height="500" preserveAspectRatio="xMidYMid meet" version="1.0"><defs><clipPath id="61079fc517"><path d="M 56.171875 30 L 358.289062 30 L 358.289062 342.894531 L 56.171875 342.894531 Z M 56.171875 30 " clip-rule="nonzero"/></clipPath><clipPath id="fe0088f883"><path d="M 16.710938 13.640625 L 353 13.640625 L 353 361.363281 L 16.710938 361.363281 Z M 16.710938 13.640625 " clip-rule="nonzero"/></clipPath><clipPath id="c9c1db2278"><path d="M 203.757812 183.558594 L 319.777344 183.558594 L 319.777344 257.511719 L 203.757812 257.511719 Z M 203.757812 183.558594 " clip-rule="nonzero"/></clipPath><clipPath id="9ac82125c6"><path d="M 217.46875 225.300781 L 325.285156 225.300781 L 325.285156 251.902344 L 217.46875 251.902344 Z M 217.46875 225.300781 " clip-rule="nonzero"/></clipPath><clipPath id="a0766c146d"><path d="M 89 180.695312 L 203.960938 180.695312 L 203.960938 257.511719 L 89 257.511719 Z M 89 180.695312 " clip-rule="nonzero"/></clipPath><clipPath id="0fc02ef552"><path d="M 82.59375 222 L 191 222 L 191 252 L 82.59375 252 Z M 82.59375 222 " clip-rule="nonzero"/></clipPath><clipPath id="4d73a11b68"><path d="M 245 117.261719 L 254 117.261719 L 254 126 L 245 126 Z M 245 117.261719 " clip-rule="nonzero"/></clipPath></defs><path fill="#e71f69" d="M 207.53125 319.878906 C 134.625 319.878906 75.523438 260.777344 75.523438 187.875 C 75.523438 114.96875 134.625 55.867188 207.53125 55.867188 C 262.476562 55.867188 309.574219 89.441406 329.445312 137.1875 C 309.585938 80.625 255.714844 40.0625 192.363281 40.0625 C 112.140625 40.0625 47.101562 105.101562 47.101562 185.324219 C 47.101562 265.550781 112.140625 330.585938 192.363281 330.585938 C 238.507812 330.585938 279.621094 309.066406 306.230469 275.519531 C 282.050781 302.730469 246.792969 319.878906 207.53125 319.878906 " fill-opacity="1" fill-rule="nonzero"/><g clip-path="url(#61079fc517)"><path fill="#00adef" d="M 208.746094 39.636719 C 289.121094 49.316406 346.425781 122.320312 336.75 202.691406 C 327.070312 283.066406 254.066406 340.375 173.691406 330.695312 C 119.8125 324.203125 76.300781 289.253906 56.386719 242.707031 C 76.546875 294.820312 124.078125 334.378906 183.425781 341.523438 C 269.058594 351.835938 346.835938 290.78125 357.148438 205.148438 C 367.460938 119.519531 306.40625 41.742188 220.773438 31.425781 C 161.429688 24.28125 105.859375 51.417969 73.902344 97.253906 C 104.300781 56.765625 154.867188 33.148438 208.746094 39.636719 " fill-opacity="1" fill-rule="nonzero"/></g><g clip-path="url(#fe0088f883)"><path fill="#00adef" d="M 183.171875 24.046875 C 93.703125 34.820312 29.910156 116.085938 40.683594 205.554688 C 51.460938 295.023438 132.726562 358.820312 222.195312 348.042969 C 282.171875 340.820312 330.609375 301.917969 352.777344 250.101562 C 330.335938 308.113281 277.421875 352.144531 211.359375 360.101562 C 116.035156 371.582031 29.457031 303.613281 17.976562 208.292969 C 6.496094 112.96875 74.460938 26.386719 169.785156 14.90625 C 235.847656 6.953125 297.703125 37.160156 333.28125 88.183594 C 299.441406 43.113281 243.152344 16.824219 183.171875 24.046875 " fill-opacity="1" fill-rule="nonzero"/></g><g clip-path="url(#c9c1db2278)"><path fill="#36a5dd" d="M 284.664062 183.667969 L 319.746094 220.496094 C 241.660156 220.65625 203.765625 257.738281 203.765625 257.738281 C 203.765625 257.738281 222.925781 196.988281 284.664062 183.667969 " fill-opacity="1" fill-rule="nonzero"/></g><g clip-path="url(#9ac82125c6)"><path fill="#00609e" d="M 325.285156 249.257812 C 273.882812 236.734375 236.351562 245.070312 217.488281 251.753906 C 232.835938 242.042969 261.0625 228.542969 302.621094 225.464844 L 325.285156 249.257812 " fill-opacity="1" fill-rule="nonzero"/></g><g clip-path="url(#a0766c146d)"><path fill="#36a5dd" d="M 125.523438 180.867188 L 89.167969 216.441406 C 167.203125 219.347656 203.765625 257.738281 203.765625 257.738281 C 203.765625 257.738281 186.753906 196.351562 125.523438 180.867188 " fill-opacity="1" fill-rule="nonzero"/></g><g clip-path="url(#0fc02ef552)"><path fill="#00609e" d="M 82.621094 244.988281 C 134.433594 234.28125 171.644531 243.933594 190.261719 251.273438 C 175.265625 241.03125 147.53125 226.542969 106.109375 222.007812 L 82.621094 244.988281 " fill-opacity="1" fill-rule="nonzero"/></g><path fill="#ff0568" d="M 292.84375 162.273438 L 287.808594 175.445312 C 255.214844 182.039062 233.910156 202.632812 221.765625 218.773438 C 232.035156 200.085938 253.628906 171.558594 292.84375 162.273438 " fill-opacity="1" fill-rule="nonzero"/><path fill="#ff0568" d="M 116.019531 158.648438 L 120.617188 172.070312 C 154.140625 179.378906 175.332031 201.257812 187.148438 218.164062 C 177.375 198.789062 156.234375 168.820312 116.019531 158.648438 " fill-opacity="1" fill-rule="nonzero"/><path fill="#00609e" d="M 204.683594 205.574219 C 204.683594 205.574219 186.457031 173.1875 161.21875 165.46875 C 161.21875 165.46875 197.714844 196.925781 203.828125 254.125 C 211.953125 197.175781 249.53125 167.023438 249.53125 167.023438 C 224.039062 173.851562 204.683594 205.574219 204.683594 205.574219 " fill-opacity="1" fill-rule="nonzero"/><path fill="#00609e" d="M 217.082031 174.734375 C 217.207031 167.503906 212.003906 161.550781 205.460938 161.433594 C 198.914062 161.320312 193.507812 167.085938 193.378906 174.320312 C 193.253906 181.550781 198.453125 187.503906 205 187.621094 C 211.542969 187.734375 216.953125 181.964844 217.082031 174.734375 " fill-opacity="1" fill-rule="nonzero"/><path fill="#36a5dd" d="M 220.964844 131.40625 L 199.542969 131.03125 L 199.167969 152.453125 L 220.589844 152.828125 L 220.964844 131.40625 " fill-opacity="1" fill-rule="nonzero"/><path fill="#36a5dd" d="M 231.863281 120.886719 L 221.152344 120.699219 L 220.964844 131.40625 L 231.675781 131.597656 L 231.863281 120.886719 " fill-opacity="1" fill-rule="nonzero"/><path fill="#00609e" d="M 253.011719 146.675781 L 242.304688 146.488281 L 242.113281 157.199219 L 252.824219 157.386719 L 253.011719 146.675781 " fill-opacity="1" fill-rule="nonzero"/><path fill="#ff0568" d="M 234.0625 142.351562 L 228.914062 142.261719 L 228.824219 147.410156 L 233.972656 147.5 L 234.0625 142.351562 " fill-opacity="1" fill-rule="nonzero"/><path fill="#ff0568" d="M 284.511719 134.058594 L 274.628906 133.882812 L 274.453125 143.765625 L 284.335938 143.9375 L 284.511719 134.058594 " fill-opacity="1" fill-rule="nonzero"/><path fill="#f8b31a" d="M 265.78125 156.644531 L 260.632812 156.554688 L 260.542969 161.703125 L 265.691406 161.792969 L 265.78125 156.644531 " fill-opacity="1" fill-rule="nonzero"/><g clip-path="url(#4d73a11b68)"><path fill="#ff0568" d="M 253.109375 117.398438 L 245.390625 117.261719 L 245.253906 124.980469 L 252.972656 125.117188 L 253.109375 117.398438 " fill-opacity="1" fill-rule="nonzero"/></g><path fill="#f8b31a" d="M 262.300781 128.234375 L 254.503906 128.097656 L 254.367188 135.894531 L 262.164062 136.03125 L 262.300781 128.234375 " fill-opacity="1" fill-rule="nonzero"/></svg>